<svg xmlns="http://www.w3.org/2000/svg" width="69.55" height="52.163" viewBox="0 0 69.55 52.163">
  <path id="Icon_material-contact-phone" data-name="Icon material-contact-phone" d="M63.754,4.5H5.8A5.813,5.813,0,0,0,0,10.3V50.867a5.813,5.813,0,0,0,5.8,5.8H63.754a5.788,5.788,0,0,0,5.767-5.8L69.55,10.3A5.813,5.813,0,0,0,63.754,4.5ZM23.183,13.194a8.694,8.694,0,1,1-8.694,8.694A8.682,8.682,0,0,1,23.183,13.194ZM40.571,47.969H5.8v-2.9c0-5.8,11.592-8.984,17.388-8.984s17.388,3.188,17.388,8.984ZM51.728,36.377h4.753l4.376,5.8L55.09,47.94a21.768,21.768,0,0,1-7.911-11.563,21.105,21.105,0,0,1,0-11.592A21.659,21.659,0,0,1,55.09,13.223l5.767,5.767-4.376,5.8H51.728a17.067,17.067,0,0,0,0,11.592Z" transform="translate(0 -4.5)" fill="#002b6b"/>
</svg>
